<?xml version="1.0" encoding="UTF-8"?><svg id="a" xmlns="http://www.w3.org/2000/svg" viewBox="0 0 4516.71 693.3"><defs><style>.b{fill:#fdfefe;}.c{fill:#68edd1;}</style></defs><path class="c" d="m185,192h112l37,63v193h-64v-64h-84l38-64h46v-64h-49l-148,256H0L185,192Zm150,0l38,64h58v192h64v-192h58l38-64h-256Zm255,64l39,64,39-64h97l38-64h-174l-39,64Zm90,128h-97l38,64h174l-76-128-39,64ZM951,0l-184,320,184,320h247v-128h-173l-111-192,111-192h173V0h-247Zm595,320l-111,192h-173s0,128,0,128h247s110.5-192.17,110.5-192.17l-73.5-127.83Zm73.5-127.83L1509,0h-247s0,128,0,128h173s111,192,111,192l73.5-127.83Zm73.5,127.83l111-192h99S1977,0,1977,0h-247s-110.5,192.17-110.5,192.17l73.5,127.83Zm-73.5,127.83l110.5,192.17h247s-74-128-74-128h-99s-111-192-111-192l-73.5,127.83Zm-565.5-191.83l-37,64,37,64h327s37-64,37-64l-37-64h-327Z"/><path class="b" d="m2251.03,581.37l-13.23,38.43h-33.18l61.74-165.48h38.43l61.74,165.48h-33.18l-13.44-38.43h-68.88Zm60.06-25.41l-25.62-73.71-25.62,73.71h51.24Z"/><path class="b" d="m2400.97,466.5h27.09v29.61h31.92v24.99h-31.92v58.8c0,13.02,2.94,16.38,23.52,16.38,5.25,0,6.51-.21,9.87-.42v24.99c-5.46.63-9.87.63-11.97.63-38.22,0-48.51-7.98-48.51-33.18v-67.2h-25.2v-24.99h25.2v-29.61Z"/><path class="b" d="m2556.16,533.91c0-8.82.21-15.96-27.09-15.96-19.32,0-27.93,1.68-27.93,14.91,0,6.72,2.1,9.66,13.23,10.71l42,4.2c19.74,1.89,30.66,10.29,30.66,34.44,0,35.07-24.15,39.27-55.44,39.27-48.3,0-57.33-12.81-57.54-43.68h26.04c.21,14.91.21,20.16,33.18,20.16,26.46,0,27.09-8.19,27.09-15.54,0-8.61-2.94-11.34-14.49-12.6l-42.63-4.41c-6.93-.63-27.93-2.94-27.93-32.34,0-33.6,25.2-38.64,54.39-38.64,52.71,0,52.71,20.37,52.92,39.48h-26.46Z"/><path class="b" d="m2731.51,454.32v26.67h-91.77v41.58h87.15v25.62h-87.15v44.94h93.45v26.67h-122.64v-165.48h120.96Z"/><path class="b" d="m2781.9,454.32l38.85,62.79,37.8-62.79h34.23l-52.92,80.01,56.07,85.47h-34.65l-40.53-68.04-41.16,68.04h-35.07l56.07-85.47-52.92-80.01h34.23Z"/><path class="b" d="m3013.11,544.62v26.67h-55.44v-26.67h55.44Z"/><path class="b" d="m3171.24,454.32c12.39,0,43.89,0,43.89,43.26,0,16.38-4.83,30.24-21.84,36.12,8.82,2.1,27.51,7.35,27.51,39.27s-12.81,46.83-49.35,46.83h-85.26v-165.48h85.05Zm-56.7,25.62v43.05h49.14c20.37,0,22.68-9.87,22.68-23.31,0-16.17-7.35-19.74-22.05-19.74h-49.77Zm0,67.83v46.41h54.81c14.07,0,22.47-3.57,22.47-23.1,0-23.31-14.91-23.31-24.57-23.31h-52.71Z"/><path class="b" d="m3267.2,454.32l43.05,134.4,43.05-134.4h32.13l-55.86,165.48h-38.85l-55.86-165.48h32.34Z"/><path class="b" d="m3524.67,454.32v26.67h-91.77v41.58h87.15v25.62h-87.15v44.94h93.45v26.67h-122.64v-165.48h120.96Z"/><path class="b" d="m3635.75,553.65c-5.04,2.52-9.45,4.62-18.69,7.98v57.54c0,20.16-13.44,20.16-20.37,20.16h-27.09l-3.36-26.46h18.9c5.46,0,7.14-.21,7.14-6.51v-36.33c-10.5,3.57-17.85,5.67-24.78,7.77l-3.36-27.09c7.77-1.68,12.6-2.73,28.14-7.56v-42.21h-26.67v-24.36h26.67v-35.49h24.78v35.49h18.69v24.36h-18.69v34.02c8.61-2.94,12.6-4.41,17.22-6.3l1.47,24.99Zm76.86-112.56v26.46h51.66v24.78h-97.65v41.79c0,63.21-9.87,84.63-24.78,105.42l-20.79-18.06c12.6-15.33,20.79-30.03,20.79-88.41v-65.52h44.52v-26.46h26.25Zm27.3,101.85c17.22,39.06,23.31,65.31,26.46,88.62l-25.2,7.98c-.84-6.51-1.26-10.5-2.52-17.22-11.13,1.89-52.5,7.35-73.92,9.24l-4.41-24.99c3.36-.21,3.99-.21,10.29-.84,6.51-22.47,17.22-67.62,22.26-104.79l24.99,4.41c-4.83,30.87-15.33,75.18-22.89,98.07,26.67-2.52,29.61-2.94,38.43-4.2-4.62-18.06-9.45-31.5-16.59-49.77l23.1-6.51Z"/><path class="b" d="m3774.77,447.39h65.94v70.98h-35.28c-.42,3.15-1.89,19.11-2.31,22.89h39.27c-.42,56.07-6.09,77.07-8.19,82.95-5.46,14.91-15.54,14.91-22.68,14.91h-27.09l-4.41-25.62h24.78c3.36,0,6.51,0,8.4-4.41,1.26-3.36,3.99-18.9,4.83-43.68h-41.79c3.57-20.58,6.3-50.82,6.3-70.56h34.23v-23.1h-42v-24.36Zm64.47,164.65c11.34-.63,16.8-1.05,22.89-1.68v-49.77h-16.38v-22.05h15.96v-91.14h107.31v21.63h-81.9v11.13h75.18v17.22h-75.18v11.55h75.18v17.64h-75.18v11.97h87.36v22.05h-18.27l18.06,14.28c-4.41,4.2-10.71,9.87-28.14,21.42,13.65,11.13,23.94,15.54,31.92,19.11l-14.49,23.73c-30.24-16.8-52.08-37.8-64.47-78.54h-11.97v47.25c10.92-1.26,20.16-2.73,32.34-4.83v23.1c-27.93,6.3-60.48,9.66-76.86,10.92l-3.36-24.99Zm81.9-51.45c1.68,5.04,3.78,10.5,10.08,19.74,10.71-7.14,17.01-13.02,24.15-19.74h-34.23Z"/><path class="b" d="m4059.74,448.23l28.56-2.31,3.78,34.65,70.14-7.35,2.31,26.46-69.51,7.35,3.78,34.86,77.28-7.77,2.31,26.46-76.65,7.77,6.93,62.37-29.19,2.1-6.51-61.53-78.33,7.77-2.52-26.67,77.91-7.77-3.57-34.44-67.83,7.14-2.31-26.46,67.2-7.14-3.78-35.49Z"/><path class="b" d="m4214.09,558.48c-2.73-15.12-7.56-32.34-16.38-51.03l22.68-6.51c12.18,24.15,16.38,42.42,18.27,51.45l-24.57,6.09Zm0,52.29c70.77-15.33,89.88-42.63,103.95-115.92l27.09,5.46c-11.34,46.2-19.32,77.49-53.55,103.53-26.88,20.37-53.76,26.67-65.52,29.4l-11.97-22.47Zm45.78-61.53c-3.99-27.09-10.92-43.26-14.07-50.82l22.89-5.25c9.45,18.48,13.65,38.64,15.33,50.19l-24.15,5.88Z"/><path class="b" d="m4407.09,447.39v52.08c36.54,9.66,70.77,25.83,103.32,44.73l-14.28,29.19c-18.69-12.6-64.68-37.8-89.04-44.31v103.53h-30.03v-185.23h30.03Z"/></svg>